<?xml version="1.0" encoding="utf-8"?>
<svg viewBox="527.871 134.04 165.063 169.955" width="165.063" height="169.955" xmlns="http://www.w3.org/2000/svg">
  <g xmlns="http://www.w3.org/2000/svg" transform="matrix(1.382019, 0, 0, 1.357178, 540.479004, 129.582077)" fill="currentColor" style="">
    <path d="M66.018,82.742l0.174-0.1c-0.064-0.033-0.121-0.071-0.174-0.12V82.742z" transform="matrix(1, 0, 0, 1, 0, 0)" style="fill: rgb(226, 113, 46);"/>
    <path d="M52.426,46.137l3.178-1.896c0.234-0.141,0.428-0.481,0.428-0.755v-4.146c0-0.274-0.193-0.383-0.428-0.243l-3.178,1.897   c-0.234,0.141-0.428,0.48-0.428,0.755v4.146C51.998,46.168,52.191,46.278,52.426,46.137z" transform="matrix(1, 0, 0, 1, 0, 0)" style="fill: rgb(226, 113, 46);"/>
    <path d="M52.426,55.803l3.178-1.897c0.234-0.141,0.428-0.48,0.428-0.755v-4.146c0-0.273-0.193-0.383-0.428-0.242l-3.178,1.898   c-0.234,0.14-0.428,0.479-0.428,0.753v4.147C51.998,55.834,52.191,55.943,52.426,55.803z" transform="matrix(1, 0, 0, 1, 0, 0)" style="fill: rgb(226, 113, 46);"/>
    <path d="M52.426,65.469l3.178-1.898c0.234-0.14,0.428-0.479,0.428-0.754v-4.145c0-0.275-0.193-0.385-0.428-0.244l-3.178,1.898   c-0.234,0.141-0.428,0.479-0.428,0.753v4.146C51.998,65.499,52.191,65.609,52.426,65.469z" transform="matrix(1, 0, 0, 1, 0, 0)" style="fill: rgb(226, 113, 46);"/>
    <path d="M52.426,75.135l3.178-1.898c0.234-0.141,0.428-0.479,0.428-0.753v-4.147c0-0.274-0.193-0.383-0.428-0.242l-3.178,1.897   c-0.234,0.141-0.428,0.48-0.428,0.754v4.146C51.998,75.165,52.191,75.275,52.426,75.135z" transform="matrix(1, 0, 0, 1, 0, 0)" style="fill: rgb(226, 113, 46);"/>
    <path d="M26.135,72.448l3.175-1.896c0.235-0.142,0.428-0.48,0.428-0.755v-4.146c0-0.274-0.193-0.384-0.428-0.243l-3.175,1.897   c-0.235,0.141-0.428,0.48-0.428,0.754v4.146C25.708,72.481,25.9,72.59,26.135,72.448z" transform="matrix(1, 0, 0, 1, 0, 0)" style="fill: rgb(226, 113, 46);"/>
    <path d="M55.604,82.902c0.234-0.141,0.428-0.481,0.428-0.755v-4.146c0-0.274-0.193-0.383-0.428-0.242l-3.178,1.896   c-0.234,0.141-0.428,0.481-0.428,0.755v4.146c0,0.275,0.193,0.383,0.428,0.242L55.604,82.902z" transform="matrix(1, 0, 0, 1, 0, 0)" style="fill: rgb(226, 113, 46);"/>
    <path d="M81.783,53.818l-3.176,1.897c-0.236,0.142-0.428,0.48-0.428,0.756v4.146c0,0.273,0.191,0.383,0.428,0.241l3.176-1.897   c0.234-0.14,0.428-0.479,0.428-0.754v-4.146C82.211,53.787,82.018,53.678,81.783,53.818z" transform="matrix(1, 0, 0, 1, 0, 0)" style="fill: rgb(226, 113, 46);"/>
    <path d="M81.783,63.484l-3.176,1.898c-0.236,0.14-0.428,0.479-0.428,0.754v4.146c0,0.273,0.191,0.382,0.428,0.242l3.176-1.897   c0.234-0.142,0.428-0.48,0.428-0.755v-4.146C82.211,63.453,82.018,63.343,81.783,63.484z" transform="matrix(1, 0, 0, 1, 0, 0)" style="fill: rgb(226, 113, 46);"/>
    <path d="M87.037,22.986L55.094,4.543C53.688,3.732,51.881,3.285,50,3.285c-1.879,0-3.688,0.447-5.093,1.258L12.964,22.986   c-2.904,1.676-5.094,5.468-5.094,8.822v36.885c0,3.352,2.19,7.145,5.094,8.82l31.943,18.443c1.405,0.812,3.213,1.258,5.093,1.258   c1.881,0,3.688-0.446,5.094-1.258l31.943-18.443c2.902-1.676,5.094-5.469,5.094-8.82V31.808   C92.131,28.454,89.939,24.662,87.037,22.986z M33.953,82.725L15.955,72.333c-1.062-0.612-2.102-2.415-2.102-3.64V59.3l10.002-5.775   c0.029-0.002,0.065-0.002,0.094,0L33.953,59.3V82.725z M60.035,86.197l-7.598,4.386l-0.336,0.194   c-0.494,0.284-1.279,0.455-2.102,0.455c-0.822,0-1.607-0.171-2.102-0.455l-0.335-0.194l-7.628-4.403V35.184   c0.013-0.027,0.031-0.058,0.047-0.082l7.597-4.386l0.852-2.152l0.959-2.429c-0.86-0.261-1.487-1.06-1.487-2.006   c0-1.159,0.939-2.097,2.096-2.097c1.158,0,2.098,0.938,2.098,2.097c0,0.946-0.627,1.745-1.488,2.006l0.961,2.429l0.861,2.176   l7.557,4.363c0.018,0.024,0.035,0.055,0.047,0.082V86.197z M86.148,68.693c0,1.225-1.041,3.027-2.102,3.64l-17.855,10.31   l-0.174,0.1v-0.22V49.487l10.004-5.775c0.029-0.003,0.064-0.003,0.094,0l10.033,5.793V68.693z M86.148,42.598l-7.146-4.126   c-1.729-0.997-4.141-0.997-5.869,0l-7.115,4.108v-7.515c0-1.995-1.207-4.084-2.936-5.083l-5.463-3.155   c0.303-0.857,0.461-1.765,0.461-2.698c0-4.456-3.625-8.08-8.08-8.08s-8.079,3.624-8.079,8.08c0,0.927,0.156,1.83,0.457,2.683   l-5.49,3.169c-1.728,0.999-2.935,3.088-2.935,5.083v17.329l-7.116-4.108c-1.728-0.998-4.141-0.998-5.869,0l-7.116,4.108V31.808   c0-1.226,1.041-3.029,2.102-3.642L47.898,9.724c0.495-0.286,1.28-0.456,2.102-0.456c0.822,0,1.607,0.17,2.102,0.456l31.945,18.443   c1.061,0.613,2.102,2.416,2.102,3.642V42.598z" transform="matrix(1, 0, 0, 1, 0, 0)" style="fill: rgb(226, 113, 46);"/>
  </g>
  <path xmlns="http://www.w3.org/2000/svg" text="Eventify" space="preserve" text-anchor="middle" offset="0.5" font-scale="contain" font-size="48" font-family="Fredoka One" data-fl-textpath="" font-weight="400" font-style="normal" d="M 535.074 280.29 L 535.074 284.94 L 547.599 284.94 C 548.22 284.94 548.689 284.966 549.006 285.017 C 549.317 285.062 549.675 285.206 550.082 285.45 C 550.811 285.879 551.175 287.08 551.175 289.053 C 551.175 291.206 550.675 292.464 549.675 292.829 C 549.212 293.015 548.506 293.108 547.556 293.108 L 531.447 293.108 C 529.549 293.108 528.439 292.526 528.117 291.359 C 527.953 290.866 527.871 290.081 527.871 289.005 L 527.871 263.358 C 527.871 261.789 528.128 260.719 528.641 260.149 C 529.156 259.585 530.134 259.303 531.574 259.303 L 547.599 259.303 C 548.22 259.303 548.689 259.326 549.006 259.37 C 549.317 259.415 549.675 259.56 550.082 259.803 C 550.811 260.238 551.175 261.44 551.175 263.406 C 551.175 265.559 550.675 266.818 549.675 267.183 C 549.212 267.369 548.506 267.462 547.556 267.462 L 535.074 267.462 L 535.074 272.122 L 543.124 272.122 C 543.746 272.122 544.215 272.144 544.531 272.189 C 544.842 272.234 545.201 272.381 545.608 272.631 C 546.336 273.06 546.701 274.258 546.701 276.224 C 546.701 278.378 546.186 279.639 545.158 280.011 C 544.695 280.197 543.989 280.29 543.04 280.29 L 535.074 280.29 Z M 572.983 269.354 C 574.389 270.309 575.093 271.324 575.093 272.4 C 575.093 273.015 574.822 273.861 574.279 274.937 L 565.864 291.312 C 565.593 291.83 565.158 292.298 564.559 292.714 C 563.966 293.131 563.376 293.339 562.788 293.339 C 562.206 293.339 561.652 293.178 561.127 292.858 C 560.597 292.531 560.224 292.198 560.009 291.859 L 559.635 291.359 L 551.178 274.937 C 550.636 273.919 550.365 273.089 550.365 272.448 C 550.365 271.34 551.071 270.309 552.484 269.354 C 553.511 268.676 554.325 268.336 554.924 268.336 C 555.518 268.336 555.983 268.544 556.322 268.961 C 556.661 269.377 557.02 270.001 557.399 270.834 L 562.729 282.451 L 568.059 270.834 C 568.358 270.245 568.582 269.822 568.728 269.566 C 568.881 269.303 569.119 269.041 569.441 268.778 C 569.768 268.515 570.203 268.384 570.745 268.384 C 571.287 268.384 572.033 268.707 572.983 269.354 Z M 596.773 278.051 C 596.773 279.941 596.361 281.34 595.536 282.249 C 594.711 283.153 593.795 283.604 592.79 283.604 L 583.147 283.604 C 583.147 284.469 583.596 285.193 584.495 285.776 C 585.387 286.359 586.282 286.651 587.181 286.651 C 588.751 286.651 589.983 286.465 590.875 286.093 L 591.324 285.91 C 591.974 285.571 592.516 285.402 592.952 285.402 C 593.822 285.402 594.568 286.093 595.189 287.477 C 595.545 288.31 595.723 289.018 595.723 289.601 C 595.723 292.336 592.833 293.704 587.054 293.704 C 585.047 293.704 583.265 293.313 581.706 292.531 C 580.147 291.749 578.932 290.712 578.062 289.418 C 576.356 286.926 575.503 284.142 575.503 281.067 C 575.503 277.192 576.608 274.094 578.817 271.776 C 581.025 269.457 583.786 268.298 587.096 268.298 C 590.864 268.298 593.629 269.802 595.392 272.813 C 596.313 274.415 596.773 276.161 596.773 278.051 Z M 583.07 279.405 L 588.197 279.405 C 589.226 279.405 589.74 278.916 589.74 277.935 C 589.74 277.224 589.502 276.654 589.028 276.224 C 588.554 275.796 587.876 275.581 586.994 275.581 C 586.113 275.581 585.237 275.988 584.367 276.801 C 583.503 277.615 583.07 278.483 583.07 279.405 Z M 611.336 268.797 C 614.047 268.797 616.307 269.976 618.114 272.333 C 619.917 274.684 620.818 277.551 620.818 280.933 L 620.818 289.053 C 620.818 289.758 620.799 290.286 620.759 290.638 C 620.714 290.991 620.598 291.384 620.411 291.82 C 620.033 292.647 618.973 293.06 617.234 293.06 C 615.313 293.06 614.202 292.493 613.904 291.359 C 613.739 290.833 613.657 290.049 613.657 289.005 L 613.657 280.885 C 613.657 279.623 613.338 278.639 612.699 277.935 C 612.062 277.224 611.208 276.869 610.141 276.869 C 609.068 276.869 608.2 277.24 607.539 277.984 C 606.873 278.719 606.539 279.687 606.539 280.885 L 606.539 289.053 C 606.539 289.758 606.519 290.286 606.48 290.638 C 606.44 290.991 606.311 291.384 606.09 291.82 C 605.74 292.647 604.698 293.06 602.962 293.06 C 601.251 293.06 600.206 292.647 599.827 291.82 C 599.636 291.359 599.519 290.949 599.48 290.59 C 599.441 290.238 599.421 289.71 599.421 289.005 L 599.421 272.679 C 599.421 272 599.441 271.484 599.48 271.132 C 599.519 270.78 599.649 270.385 599.87 269.95 C 600.248 269.181 601.291 268.797 602.997 268.797 C 604.652 268.797 605.67 269.152 606.048 269.864 C 606.319 270.382 606.454 271.013 606.454 271.757 C 606.567 271.539 606.813 271.231 607.191 270.834 C 607.57 270.431 607.935 270.107 608.285 269.864 C 609.211 269.152 610.228 268.797 611.336 268.797 Z M 636.113 276.965 L 633.469 276.783 L 633.469 283.143 C 633.469 283.976 633.584 284.575 633.817 284.94 C 634.041 285.312 634.474 285.498 635.113 285.498 C 635.751 285.498 636.24 285.52 636.579 285.565 C 636.917 285.609 637.277 285.757 637.654 286.007 C 638.282 286.404 638.596 287.432 638.596 289.091 C 638.596 291.032 638.214 292.217 637.452 292.647 C 637.045 292.865 636.686 292.996 636.375 293.041 C 636.065 293.085 635.61 293.108 635.012 293.108 C 632.192 293.108 630.051 292.384 628.588 290.936 C 627.124 289.495 626.393 287.051 626.393 283.604 L 626.393 276.783 C 625.873 276.871 625.316 276.917 624.724 276.917 C 624.125 276.917 623.631 276.657 623.24 276.138 C 622.845 275.613 622.647 274.72 622.647 273.457 C 622.647 272.196 622.715 271.282 622.85 270.718 C 622.986 270.149 623.175 269.738 623.418 269.489 C 623.854 269.092 624.396 268.894 625.045 268.894 L 626.393 269.076 L 626.393 264.328 C 626.393 263.618 626.413 263.095 626.452 262.762 C 626.491 262.423 626.619 262.052 626.834 261.648 C 627.189 260.879 628.234 260.494 629.969 260.494 C 631.81 260.494 632.909 261.065 633.266 262.205 C 633.401 262.699 633.469 263.484 633.469 264.559 L 633.469 269.076 C 634.661 268.953 635.562 268.894 636.172 268.894 C 636.782 268.894 637.243 268.915 637.553 268.961 C 637.864 269.005 638.223 269.152 638.63 269.402 C 639.335 269.799 639.689 270.982 639.689 272.948 C 639.689 274.889 639.325 276.074 638.596 276.503 C 638.188 276.721 637.827 276.853 637.511 276.898 C 637.2 276.942 636.734 276.965 636.113 276.965 Z M 641.928 289.053 L 641.928 272.861 C 641.928 272.15 641.948 271.619 641.987 271.266 C 642.027 270.914 642.142 270.507 642.334 270.046 C 642.714 269.246 643.769 268.845 645.504 268.845 C 646.809 268.845 647.732 269.108 648.275 269.633 C 648.733 270.062 648.976 270.722 649.004 271.612 C 649.032 271.92 649.046 272.365 649.046 272.948 L 649.046 289.091 C 649.046 289.802 649.026 290.334 648.987 290.686 C 648.947 291.039 648.817 291.446 648.597 291.907 C 648.247 292.708 647.204 293.108 645.47 293.108 C 643.759 293.108 642.714 292.692 642.334 291.859 C 642.142 291.397 642.027 291.001 641.987 290.667 C 641.948 290.328 641.928 289.79 641.928 289.053 Z M 648.623 264.3 C 648.418 264.748 648.057 265.066 647.538 265.252 C 647.024 265.437 646.34 265.53 645.487 265.53 C 644.634 265.53 643.95 265.437 643.436 265.252 C 642.916 265.066 642.555 264.742 642.351 264.281 C 642.148 263.82 642.027 263.413 641.987 263.06 C 641.948 262.708 641.928 262.176 641.928 261.465 C 641.928 260.761 641.948 260.232 641.987 259.88 C 642.027 259.521 642.142 259.127 642.334 258.698 C 642.714 257.871 643.769 257.458 645.504 257.458 C 647.215 257.458 648.247 257.871 648.597 258.698 C 648.817 259.159 648.947 259.565 648.987 259.918 C 649.026 260.277 649.046 260.808 649.046 261.513 C 649.046 262.218 649.026 262.749 648.987 263.108 C 648.947 263.46 648.826 263.858 648.623 264.3 Z M 662.181 269.124 L 664.825 268.845 C 666.701 268.845 667.799 269.431 668.122 270.604 C 668.285 271.187 668.368 271.956 668.368 272.91 C 668.368 273.858 668.28 274.617 668.105 275.187 C 667.929 275.757 667.65 276.164 667.266 276.407 C 666.701 276.779 665.875 276.965 664.791 276.965 L 662.181 276.783 L 662.181 289.139 C 662.181 290.312 662.054 291.18 661.8 291.744 C 661.54 292.314 661.147 292.692 660.622 292.878 C 660.091 293.063 659.405 293.156 658.563 293.156 C 657.721 293.156 657.052 293.057 656.554 292.858 C 656.052 292.653 655.69 292.329 655.469 291.887 C 655.255 291.439 655.128 291.032 655.088 290.667 C 655.049 290.295 655.028 289.758 655.028 289.053 L 655.028 276.83 L 653.562 276.83 C 652.857 276.766 652.354 276.581 652.054 276.273 C 651.541 275.69 651.284 274.569 651.284 272.91 C 651.284 270.385 652.083 269.124 653.682 269.124 L 655.028 269.124 L 655.028 266.683 C 655.028 264.312 655.774 262.166 657.267 260.245 C 658.758 258.323 660.913 257.362 663.732 257.362 C 664.354 257.362 664.82 257.385 665.13 257.43 C 665.446 257.474 665.809 257.621 666.215 257.871 C 666.943 258.268 667.308 259.45 667.308 261.417 C 667.308 262.896 667.08 263.96 666.622 264.607 C 666.238 265.094 665.639 265.37 664.825 265.434 C 664.582 265.434 664.204 265.434 663.69 265.434 C 662.683 265.434 662.181 265.818 662.181 266.587 L 662.181 269.124 Z M 690.536 269.076 C 692.135 269.877 692.934 270.847 692.934 271.987 C 692.934 272.538 692.827 273.06 692.613 273.553 C 692.392 274.047 692.282 274.306 692.282 274.332 L 681.63 301.363 C 681.409 301.945 681.225 302.391 681.079 302.698 C 680.932 303.006 680.695 303.3 680.367 303.581 C 680.039 303.858 679.633 303.995 679.147 303.995 C 678.661 303.995 677.944 303.764 676.994 303.304 C 675.389 302.502 674.587 301.548 674.587 300.439 C 674.587 299.703 675.89 296.183 678.495 289.88 L 670.402 274.427 C 669.859 273.416 669.588 272.663 669.588 272.17 C 669.588 271.183 670.319 270.2 671.783 269.219 C 672.703 268.604 673.424 268.298 673.943 268.298 C 674.457 268.298 674.875 268.419 675.198 268.663 C 675.525 268.906 675.762 269.159 675.91 269.421 C 676.062 269.684 676.807 271.116 678.146 273.717 C 679.491 276.311 680.774 278.733 681.994 280.981 C 682.129 280.488 682.861 278.589 684.189 275.283 C 685.517 271.977 686.228 270.216 686.324 269.998 C 686.421 269.786 686.575 269.528 686.79 269.219 C 687.147 268.695 687.644 268.432 688.281 268.432 C 688.915 268.432 689.666 268.646 690.536 269.076 Z" style="fill: rgb(226, 113, 46);"/>
</svg>